<svg width="56" height="57" viewBox="0 0 56 57" fill="none" xmlns="http://www.w3.org/2000/svg">
<path d="M28 54C24.5417 54 21.2917 53.3306 18.25 51.9919C15.2083 50.6531 12.5625 48.8363 10.3125 46.5412C8.0625 44.2463 6.28125 41.5475 4.96875 38.445C3.65625 35.3425 3 32.0275 3 28.5C3 24.9725 3.65625 21.6575 4.96875 18.555C6.28125 15.4525 8.0625 12.7537 10.3125 10.4587C12.5625 8.16375 15.2083 6.34687 18.25 5.00813C21.2917 3.66938 24.5417 3 28 3C30.7083 3 33.2708 3.40375 35.6875 4.21125C38.1042 5.01875 40.3333 6.145 42.375 7.59L38.75 11.3512C37.1667 10.3312 35.4792 9.53437 33.6875 8.96062C31.8958 8.38687 30 8.1 28 8.1C22.4583 8.1 17.7396 10.0869 13.8438 14.0606C9.94792 18.0344 8 22.8475 8 28.5C8 34.1525 9.94792 38.9656 13.8438 42.9394C17.7396 46.9131 22.4583 48.9 28 48.9C33.5417 48.9 38.2604 46.9131 42.1562 42.9394C46.0521 38.9656 48 34.1525 48 28.5C48 27.735 47.9583 26.97 47.875 26.205C47.7917 25.44 47.6667 24.6962 47.5 23.9737L51.5625 19.83C52.0208 21.19 52.375 22.5925 52.625 24.0375C52.875 25.4825 53 26.97 53 28.5C53 32.0275 52.3438 35.3425 51.0312 38.445C49.7188 41.5475 47.9375 44.2463 45.6875 46.5412C43.4375 48.8363 40.7917 50.6531 37.75 51.9919C34.7083 53.3306 31.4583 54 28 54ZM24.5 40.23L13.875 29.3925L17.375 25.8225L24.5 33.09L49.5 7.52625L53 11.0962L24.5 40.23Z" fill="#0055FF"/>
</svg>
