<svg width="14" height="14" viewBox="0 0 14 14" fill="none" xmlns="http://www.w3.org/2000/svg">
<path d="M0 11.9017C0 12.2822 0.0951239 12.6319 0.285372 12.9508C0.47562 13.2698 0.730216 13.5244 1.04916 13.7146C1.36811 13.9049 1.71783 14 2.09832 14C2.47882 14 2.83134 13.9049 3.15588 13.7146C3.48042 13.5244 3.73501 13.2698 3.91966 12.9508C4.10432 12.6319 4.19664 12.2822 4.19664 11.9017C4.19664 11.7002 4.1295 11.5324 3.9952 11.3981C3.86091 11.2638 3.69584 11.1966 3.5 11.1966C3.30416 11.1966 3.13909 11.2638 3.0048 11.3981C2.8705 11.5324 2.80336 11.6974 2.80336 11.8933C2.80336 12.0891 2.73621 12.2542 2.60192 12.3885C2.46763 12.5228 2.30256 12.5899 2.10671 12.5899C1.91087 12.5899 1.7458 12.5228 1.61151 12.3885C1.47722 12.2542 1.41007 12.0891 1.41007 11.8933C1.41007 11.6974 1.34013 11.5324 1.20024 11.3981C1.06035 11.2638 0.895284 11.1966 0.705036 11.1966C0.514788 11.1966 0.34972 11.2638 0.209832 11.3981C0.0699441 11.5324 0 11.7002 0 11.9017ZM4.19664 11.9017C4.19664 11.5212 4.10432 11.1687 3.91966 10.8441C3.73501 10.5196 3.48042 10.265 3.15588 10.0803C2.83134 9.89568 2.47882 9.80336 2.09832 9.80336C1.71783 9.80336 1.36811 9.89568 1.04916 10.0803C0.730216 10.265 0.47562 10.5196 0.285372 10.8441C0.0951239 11.1687 0 11.5212 0 11.9017C0 12.0919 0.0699441 12.2542 0.209832 12.3885C0.34972 12.5228 0.514788 12.5899 0.705036 12.5899C0.895284 12.5899 1.06035 12.5228 1.20024 12.3885C1.34013 12.2542 1.41007 12.0891 1.41007 11.8933C1.41007 11.6974 1.47722 11.5324 1.61151 11.3981C1.7458 11.2638 1.91087 11.1966 2.10671 11.1966C2.30256 11.1966 2.46763 11.2638 2.60192 11.3981C2.73621 11.5324 2.80336 11.6974 2.80336 11.8933C2.80336 12.0891 2.8705 12.2542 3.0048 12.3885C3.13909 12.5228 3.30416 12.5899 3.5 12.5899C3.69584 12.5899 3.86091 12.5228 3.9952 12.3885C4.1295 12.2542 4.19664 12.0919 4.19664 11.9017ZM11.9017 4.19664C12.2822 4.19664 12.6319 4.10432 12.9508 3.91966C13.2698 3.73501 13.5244 3.48042 13.7146 3.15588C13.9049 2.83133 14 2.47882 14 2.09832C14 1.71782 13.9049 1.3681 13.7146 1.04916C13.5244 0.730215 13.2698 0.475618 12.9508 0.285371C12.6319 0.0951233 12.2822 -9.53674e-07 11.9017 -9.53674e-07C11.7002 -9.53674e-07 11.5324 0.0699434 11.3981 0.209831C11.2638 0.34972 11.1966 0.514788 11.1966 0.705035C11.1966 0.895283 11.2638 1.06035 11.3981 1.20024C11.5324 1.34013 11.6974 1.41007 11.8933 1.41007C12.0891 1.41007 12.2542 1.47722 12.3885 1.61151C12.5228 1.7458 12.5899 1.91087 12.5899 2.10671C12.5899 2.30256 12.5228 2.46763 12.3885 2.60192C12.2542 2.73621 12.0891 2.80336 11.8933 2.80336C11.6974 2.80336 11.5324 2.8705 11.3981 3.0048C11.2638 3.13909 11.1966 3.30416 11.1966 3.5C11.1966 3.69584 11.2638 3.86091 11.3981 3.9952C11.5324 4.1295 11.7002 4.19664 11.9017 4.19664ZM11.9017 -9.53674e-07C11.5212 -9.53674e-07 11.1687 0.0951233 10.8441 0.285371C10.5196 0.475618 10.265 0.730215 10.0803 1.04916C9.89568 1.3681 9.80336 1.71782 9.80336 2.09832C9.80336 2.47882 9.89568 2.83133 10.0803 3.15588C10.265 3.48042 10.5196 3.73501 10.8441 3.91966C11.1687 4.10432 11.5212 4.19664 11.9017 4.19664C12.0919 4.19664 12.2542 4.1295 12.3885 3.9952C12.5228 3.86091 12.5899 3.69584 12.5899 3.5C12.5899 3.30416 12.5228 3.13909 12.3885 3.0048C12.2542 2.8705 12.0891 2.80336 11.8933 2.80336C11.6974 2.80336 11.5324 2.73621 11.3981 2.60192C11.2638 2.46763 11.1966 2.30256 11.1966 2.10671C11.1966 1.91087 11.2638 1.7458 11.3981 1.61151C11.5324 1.47722 11.6974 1.41007 11.8933 1.41007C12.0891 1.41007 12.2542 1.34013 12.3885 1.20024C12.5228 1.06035 12.5899 0.895283 12.5899 0.705035C12.5899 0.514788 12.5228 0.34972 12.3885 0.209831C12.2542 0.0699434 12.0919 -9.53674e-07 11.9017 -9.53674e-07ZM5.60671 11.9017C5.60671 12.0919 5.67386 12.2542 5.80815 12.3885C5.94245 12.5228 6.10472 12.5899 6.29496 12.5899H10.1559C10.3461 12.5899 10.5084 12.5228 10.6427 12.3885C10.777 12.2542 10.8441 12.0891 10.8441 11.8933C10.8441 11.6974 10.777 11.5324 10.6427 11.3981C10.5084 11.2638 10.3461 11.1966 10.1559 11.1966H6.29496C6.10472 11.1966 5.94245 11.2638 5.80815 11.3981C5.67386 11.5324 5.60671 11.7002 5.60671 11.9017ZM10.1559 12.5899C10.7154 12.5899 11.2386 12.45 11.7254 12.1703C12.2122 11.8905 12.5955 11.51 12.8753 11.0288C13.1551 10.5476 13.295 10.0216 13.295 9.45084C13.295 8.8801 13.1551 8.35412 12.8753 7.8729C12.5955 7.39169 12.2122 7.00839 11.7254 6.72302C11.2386 6.43765 10.7098 6.29496 10.1391 6.29496C9.94884 6.29496 9.78657 6.36491 9.65228 6.5048C9.51799 6.64468 9.45084 6.80975 9.45084 7C9.45084 7.19025 9.51799 7.35532 9.65228 7.4952C9.78657 7.63509 9.95444 7.70504 10.1559 7.70504C10.4692 7.70504 10.7602 7.78337 11.0288 7.94005C11.2974 8.09672 11.51 8.30935 11.6667 8.57794C11.8233 8.84652 11.9017 9.13749 11.9017 9.45084C11.9017 9.76419 11.8233 10.0552 11.6667 10.3237C11.51 10.5923 11.2974 10.805 11.0288 10.9616C10.7602 11.1183 10.4636 11.1966 10.1391 11.1966C9.94884 11.1966 9.78657 11.2638 9.65228 11.3981C9.51799 11.5324 9.45084 11.6974 9.45084 11.8933C9.45084 12.0891 9.51799 12.2542 9.65228 12.3885C9.78657 12.5228 9.95444 12.5899 10.1559 12.5899ZM10.8441 7C10.8441 6.80975 10.777 6.64468 10.6427 6.5048C10.5084 6.36491 10.3461 6.29496 10.1559 6.29496H4.54916C4.35891 6.29496 4.19664 6.36491 4.06235 6.5048C3.92806 6.64468 3.86091 6.80975 3.86091 7C3.86091 7.19025 3.92806 7.35532 4.06235 7.4952C4.19664 7.63509 4.35891 7.70504 4.54916 7.70504H10.1559C10.3461 7.70504 10.5084 7.63509 10.6427 7.4952C10.777 7.35532 10.8441 7.19025 10.8441 7ZM4.54916 1.41007C3.97842 1.41007 3.45244 1.54996 2.97122 1.82974C2.49001 2.10951 2.10951 2.49001 1.82974 2.97122C1.54996 3.45244 1.41007 3.97842 1.41007 4.54916C1.41007 5.1199 1.54996 5.64588 1.82974 6.1271C2.10951 6.60831 2.49001 6.99161 2.97122 7.27698C3.45244 7.56235 3.97842 7.70504 4.54916 7.70504C4.73941 7.70504 4.90448 7.63509 5.04436 7.4952C5.18425 7.35532 5.2542 7.19025 5.2542 7C5.2542 6.80975 5.18425 6.64468 5.04436 6.5048C4.90448 6.36491 4.73941 6.29496 4.54916 6.29496C4.23581 6.29496 3.94484 6.21663 3.67626 6.05995C3.40767 5.90328 3.19504 5.69065 3.03837 5.42206C2.88169 5.15348 2.80336 4.86251 2.80336 4.54916C2.80336 4.23581 2.88169 3.94484 3.03837 3.67626C3.19504 3.40767 3.40767 3.19504 3.67626 3.03837C3.94484 2.88169 4.23581 2.80336 4.54916 2.80336C4.73941 2.80336 4.90448 2.73621 5.04436 2.60192C5.18425 2.46763 5.2542 2.30256 5.2542 2.10671C5.2542 1.91087 5.18425 1.7458 5.04436 1.61151C4.90448 1.47722 4.73941 1.41007 4.54916 1.41007ZM3.86091 2.09832C3.86091 2.29976 3.92806 2.46763 4.06235 2.60192C4.19664 2.73621 4.35891 2.80336 4.54916 2.80336H7.70504C7.89528 2.80336 8.05755 2.73621 8.19185 2.60192C8.32614 2.46763 8.39329 2.30256 8.39329 2.10671C8.39329 1.91087 8.32614 1.7458 8.19185 1.61151C8.05755 1.47722 7.89528 1.41007 7.70504 1.41007H4.54916C4.35891 1.41007 4.19664 1.47722 4.06235 1.61151C3.92806 1.7458 3.86091 1.90807 3.86091 2.09832Z" fill="#4A5568"/>
</svg>
