<svg width="23" height="22" viewBox="0 0 23 22" fill="none" xmlns="http://www.w3.org/2000/svg">
<path d="M7.33602 10.076C7.33602 10.7507 7.50102 11.3667 7.83102 11.924C8.16102 12.4814 8.60836 12.925 9.17302 13.255C9.73769 13.585 10.35 13.75 11.01 13.75C11.67 13.75 12.2824 13.585 12.847 13.255C13.4117 12.925 13.859 12.4814 14.189 11.924C14.519 11.3667 14.684 10.7507 14.684 10.076C14.684 9.82669 14.5924 9.61402 14.409 9.43802C14.2257 9.26202 14.0094 9.17402 13.76 9.17402C13.5107 9.17402 13.2944 9.26202 13.111 9.43802C12.9277 9.61402 12.836 9.82669 12.836 10.076C12.836 10.5894 12.66 11.0257 12.308 11.385C11.956 11.7444 11.5234 11.924 11.01 11.924C10.4967 11.924 10.064 11.7444 9.71202 11.385C9.36002 11.0257 9.18402 10.5894 9.18402 10.076C9.18402 9.82669 9.09236 9.61402 8.90902 9.43802C8.72569 9.26202 8.50936 9.17402 8.26002 9.17402C8.01069 9.17402 7.79436 9.26202 7.61102 9.43802C7.42769 9.61402 7.33602 9.82669 7.33602 10.076ZM14.684 10.076C14.684 9.41602 14.519 8.80735 14.189 8.25002C13.859 7.69269 13.4117 7.24902 12.847 6.91902C12.2824 6.58902 11.67 6.42402 11.01 6.42402C10.35 6.42402 9.73769 6.58902 9.17302 6.91902C8.60836 7.24902 8.16102 7.69269 7.83102 8.25002C7.50102 8.80735 7.33602 9.41602 7.33602 10.076C7.33602 10.34 7.42769 10.56 7.61102 10.736C7.79436 10.912 8.01069 11 8.26002 11C8.50936 11 8.72569 10.912 8.90902 10.736C9.09236 10.56 9.18402 10.34 9.18402 10.076C9.18402 9.57735 9.36002 9.14835 9.71202 8.78902C10.064 8.42969 10.4967 8.25002 11.01 8.25002C11.5234 8.25002 11.956 8.42969 12.308 8.78902C12.66 9.14835 12.836 9.57735 12.836 10.076C12.836 10.34 12.9277 10.56 13.111 10.736C13.2944 10.912 13.5107 11 13.76 11C14.0094 11 14.2257 10.912 14.409 10.736C14.5924 10.56 14.684 10.34 14.684 10.076ZM16.84 14.63C16.664 14.4394 16.4477 14.344 16.191 14.344C15.9344 14.344 15.718 14.4394 15.542 14.63L11.648 18.502C11.472 18.6927 11.384 18.9127 11.384 19.162C11.384 19.4114 11.4757 19.624 11.659 19.8C11.8424 19.976 12.0587 20.064 12.308 20.064C12.5574 20.064 12.77 19.976 12.946 19.8L16.84 15.906C17.016 15.73 17.104 15.5174 17.104 15.268C17.104 15.0187 17.016 14.806 16.84 14.63ZM9.07402 19.8C9.42602 20.152 9.83669 20.3904 10.306 20.515C10.7754 20.6397 11.2447 20.6397 11.714 20.515C12.1834 20.3904 12.594 20.152 12.946 19.8C13.1367 19.624 13.232 19.4114 13.232 19.162C13.232 18.9127 13.1404 18.6964 12.957 18.513C12.7737 18.3297 12.5574 18.238 12.308 18.238C12.0587 18.238 11.8424 18.3297 11.659 18.513C11.4757 18.6964 11.2594 18.788 11.01 18.788C10.7607 18.788 10.5444 18.6964 10.361 18.513C10.1777 18.3297 9.96136 18.238 9.71202 18.238C9.46269 18.238 9.24636 18.3297 9.06302 18.513C8.87969 18.6964 8.79169 18.9127 8.79902 19.162C8.80636 19.4114 8.89802 19.624 9.07402 19.8ZM10.372 19.8C10.548 19.624 10.636 19.4114 10.636 19.162C10.636 18.9127 10.548 18.6927 10.372 18.502L6.47802 14.63C6.30202 14.4394 6.08569 14.344 5.82902 14.344C5.57236 14.344 5.35602 14.4357 5.18002 14.619C5.00402 14.8024 4.91602 15.0187 4.91602 15.268C4.91602 15.5174 5.00402 15.73 5.18002 15.906L9.07402 19.8C9.25002 19.976 9.46269 20.064 9.71202 20.064C9.96136 20.064 10.1814 19.976 10.372 19.8ZM16.84 15.906C17.896 14.85 18.6147 13.6034 18.996 12.166C19.3627 10.7727 19.3627 9.37935 18.996 7.98602C18.6147 6.54869 17.896 5.30202 16.84 4.24602C15.784 3.19002 14.5374 2.47869 13.1 2.11202C11.7067 1.74535 10.3134 1.74535 8.92002 2.11202C7.48269 2.47869 6.23602 3.19002 5.18002 4.24602C4.12402 5.30202 3.40536 6.54869 3.02402 7.98602C2.65736 9.37935 2.65736 10.7727 3.02402 12.166C3.40536 13.6034 4.12402 14.85 5.18002 15.906C5.35602 16.0967 5.57236 16.192 5.82902 16.192C6.08569 16.192 6.30202 16.1004 6.47802 15.917C6.65402 15.7337 6.74202 15.5174 6.74202 15.268C6.74202 15.0187 6.65402 14.806 6.47802 14.63C5.65669 13.8087 5.09936 12.8334 4.80602 11.704C4.51269 10.6187 4.51269 9.53335 4.80602 8.44802C5.09936 7.33335 5.65669 6.36535 6.47802 5.54402C7.29936 4.72269 8.26736 4.16535 9.38202 3.87202C10.4674 3.59335 11.5527 3.59335 12.638 3.87202C13.7527 4.16535 14.7207 4.72269 15.542 5.54402C16.3634 6.36535 16.9207 7.33335 17.214 8.44802C17.5074 9.53335 17.5074 10.6187 17.214 11.704C16.9207 12.8334 16.3634 13.8087 15.542 14.63C15.366 14.806 15.278 15.0187 15.278 15.268C15.278 15.5174 15.366 15.7337 15.542 15.917C15.718 16.1004 15.9344 16.192 16.191 16.192C16.4477 16.192 16.664 16.0967 16.84 15.906Z" fill="#8A96B0"/>
</svg>
