<svg width="23" height="22" viewBox="0 0 23 22" fill="none" xmlns="http://www.w3.org/2000/svg">
<path d="M3.68401 3.674C3.68401 3.92333 3.77201 4.136 3.94801 4.312C4.12401 4.488 4.33668 4.576 4.58601 4.576H8.26001C8.50934 4.576 8.72568 4.488 8.90901 4.312C9.09234 4.136 9.18401 3.91967 9.18401 3.663C9.18401 3.40633 9.09234 3.19 8.90901 3.014C8.72568 2.838 8.50934 2.75 8.26001 2.75H4.58601C4.33668 2.75 4.12401 2.838 3.94801 3.014C3.77201 3.19 3.68401 3.41 3.68401 3.674ZM10.086 4.576C10.086 4.07733 9.91001 3.64833 9.55801 3.289C9.20601 2.92967 8.77334 2.75 8.26001 2.75C8.01068 2.75 7.79434 2.838 7.61101 3.014C7.42768 3.19 7.33601 3.40633 7.33601 3.663C7.33601 3.91967 7.42768 4.136 7.61101 4.312C7.79434 4.488 8.01068 4.576 8.26001 4.576C8.26001 4.84 8.34801 5.06 8.52401 5.236C8.70001 5.412 8.91634 5.5 9.17301 5.5C9.42968 5.5 9.64601 5.412 9.82201 5.236C9.99801 5.06 10.086 4.84 10.086 4.576ZM9.18401 3.674C8.92001 3.674 8.70001 3.762 8.52401 3.938C8.34801 4.114 8.26001 4.32667 8.26001 4.576V10.076C8.26001 10.34 8.34801 10.56 8.52401 10.736C8.70001 10.912 8.91634 11 9.17301 11C9.42968 11 9.64601 10.912 9.82201 10.736C9.99801 10.56 10.086 10.34 10.086 10.076V4.576C10.086 4.32667 9.99801 4.114 9.82201 3.938C9.64601 3.762 9.43334 3.674 9.18401 3.674ZM8.26001 11.924C8.77334 11.924 9.20601 11.7443 9.55801 11.385C9.91001 11.0257 10.086 10.5893 10.086 10.076C10.086 9.82667 9.99801 9.614 9.82201 9.438C9.64601 9.262 9.42968 9.174 9.17301 9.174C8.91634 9.174 8.70001 9.262 8.52401 9.438C8.34801 9.614 8.26001 9.82667 8.26001 10.076C8.01068 10.076 7.79434 10.1677 7.61101 10.351C7.42768 10.5343 7.33601 10.7507 7.33601 11C7.33601 11.2493 7.42768 11.4657 7.61101 11.649C7.79434 11.8323 8.01068 11.924 8.26001 11.924ZM9.18401 11C9.18401 10.7507 9.09234 10.5343 8.90901 10.351C8.72568 10.1677 8.50934 10.076 8.26001 10.076H4.58601C4.33668 10.076 4.12401 10.1677 3.94801 10.351C3.77201 10.5343 3.68401 10.7507 3.68401 11C3.68401 11.2493 3.77201 11.4657 3.94801 11.649C4.12401 11.8323 4.33668 11.924 4.58601 11.924H8.26001C8.50934 11.924 8.72568 11.8323 8.90901 11.649C9.09234 11.4657 9.18401 11.2493 9.18401 11ZM2.76001 10.076C2.76001 10.5893 2.93968 11.0257 3.29901 11.385C3.65834 11.7443 4.08734 11.924 4.58601 11.924C4.85001 11.924 5.07001 11.8323 5.24601 11.649C5.42201 11.4657 5.51001 11.2493 5.51001 11C5.51001 10.7507 5.42201 10.5343 5.24601 10.351C5.07001 10.1677 4.85001 10.076 4.58601 10.076C4.58601 9.82667 4.49801 9.614 4.32201 9.438C4.14601 9.262 3.92968 9.174 3.67301 9.174C3.41634 9.174 3.20001 9.262 3.02401 9.438C2.84801 9.614 2.76001 9.82667 2.76001 10.076ZM3.68401 11C3.93334 11 4.14601 10.912 4.32201 10.736C4.49801 10.56 4.58601 10.34 4.58601 10.076V4.576C4.58601 4.32667 4.49801 4.114 4.32201 3.938C4.14601 3.762 3.92968 3.674 3.67301 3.674C3.41634 3.674 3.20001 3.762 3.02401 3.938C2.84801 4.114 2.76001 4.32667 2.76001 4.576V10.076C2.76001 10.34 2.84801 10.56 3.02401 10.736C3.20001 10.912 3.42001 11 3.68401 11ZM4.58601 2.75C4.08734 2.75 3.65834 2.92967 3.29901 3.289C2.93968 3.64833 2.76001 4.07733 2.76001 4.576C2.76001 4.84 2.84801 5.06 3.02401 5.236C3.20001 5.412 3.41634 5.5 3.67301 5.5C3.92968 5.5 4.14601 5.412 4.32201 5.236C4.49801 5.06 4.58601 4.84 4.58601 4.576C4.85001 4.576 5.07001 4.488 5.24601 4.312C5.42201 4.136 5.51001 3.91967 5.51001 3.663C5.51001 3.40633 5.42201 3.19 5.24601 3.014C5.07001 2.838 4.85001 2.75 4.58601 2.75ZM3.68401 14.674C3.68401 14.9233 3.77201 15.136 3.94801 15.312C4.12401 15.488 4.33668 15.576 4.58601 15.576H8.26001C8.50934 15.576 8.72568 15.488 8.90901 15.312C9.09234 15.136 9.18401 14.9197 9.18401 14.663C9.18401 14.4063 9.09234 14.19 8.90901 14.014C8.72568 13.838 8.50934 13.75 8.26001 13.75H4.58601C4.33668 13.75 4.12401 13.838 3.94801 14.014C3.77201 14.19 3.68401 14.41 3.68401 14.674ZM10.086 15.576C10.086 15.0773 9.91001 14.6483 9.55801 14.289C9.20601 13.9297 8.77334 13.75 8.26001 13.75C8.01068 13.75 7.79434 13.838 7.61101 14.014C7.42768 14.19 7.33601 14.4063 7.33601 14.663C7.33601 14.9197 7.42768 15.136 7.61101 15.312C7.79434 15.488 8.01068 15.576 8.26001 15.576C8.26001 15.84 8.34801 16.06 8.52401 16.236C8.70001 16.412 8.91634 16.5 9.17301 16.5C9.42968 16.5 9.64601 16.412 9.82201 16.236C9.99801 16.06 10.086 15.84 10.086 15.576ZM9.18401 14.674C8.92001 14.674 8.70001 14.762 8.52401 14.938C8.34801 15.114 8.26001 15.3267 8.26001 15.576V17.424C8.26001 17.6733 8.34801 17.886 8.52401 18.062C8.70001 18.238 8.91634 18.326 9.17301 18.326C9.42968 18.326 9.64601 18.238 9.82201 18.062C9.99801 17.886 10.086 17.6733 10.086 17.424V15.576C10.086 15.3267 9.99801 15.114 9.82201 14.938C9.64601 14.762 9.43334 14.674 9.18401 14.674ZM8.26001 19.25C8.77334 19.25 9.20601 19.0703 9.55801 18.711C9.91001 18.3517 10.086 17.9227 10.086 17.424C10.086 17.16 9.99801 16.94 9.82201 16.764C9.64601 16.588 9.42968 16.5 9.17301 16.5C8.91634 16.5 8.70001 16.588 8.52401 16.764C8.34801 16.94 8.26001 17.16 8.26001 17.424C8.01068 17.424 7.79434 17.512 7.61101 17.688C7.42768 17.864 7.33601 18.0803 7.33601 18.337C7.33601 18.5937 7.42768 18.81 7.61101 18.986C7.79434 19.162 8.01068 19.25 8.26001 19.25ZM9.18401 18.326C9.18401 18.0767 9.09234 17.864 8.90901 17.688C8.72568 17.512 8.50934 17.424 8.26001 17.424H4.58601C4.33668 17.424 4.12401 17.512 3.94801 17.688C3.77201 17.864 3.68401 18.0803 3.68401 18.337C3.68401 18.5937 3.77201 18.81 3.94801 18.986C4.12401 19.162 4.33668 19.25 4.58601 19.25H8.26001C8.50934 19.25 8.72568 19.162 8.90901 18.986C9.09234 18.81 9.18401 18.59 9.18401 18.326ZM2.76001 17.424C2.76001 17.9227 2.93968 18.3517 3.29901 18.711C3.65834 19.0703 4.08734 19.25 4.58601 19.25C4.85001 19.25 5.07001 19.162 5.24601 18.986C5.42201 18.81 5.51001 18.5937 5.51001 18.337C5.51001 18.0803 5.42201 17.864 5.24601 17.688C5.07001 17.512 4.85001 17.424 4.58601 17.424C4.58601 17.16 4.49801 16.94 4.32201 16.764C4.14601 16.588 3.92968 16.5 3.67301 16.5C3.41634 16.5 3.20001 16.588 3.02401 16.764C2.84801 16.94 2.76001 17.16 2.76001 17.424ZM3.68401 18.326C3.93334 18.326 4.14601 18.238 4.32201 18.062C4.49801 17.886 4.58601 17.6733 4.58601 17.424V15.576C4.58601 15.3267 4.49801 15.114 4.32201 14.938C4.14601 14.762 3.92968 14.674 3.67301 14.674C3.41634 14.674 3.20001 14.762 3.02401 14.938C2.84801 15.114 2.76001 15.3267 2.76001 15.576V17.424C2.76001 17.6733 2.84801 17.886 3.02401 18.062C3.20001 18.238 3.42001 18.326 3.68401 18.326ZM4.58601 13.75C4.08734 13.75 3.65834 13.9297 3.29901 14.289C2.93968 14.6483 2.76001 15.0773 2.76001 15.576C2.76001 15.84 2.84801 16.06 3.02401 16.236C3.20001 16.412 3.41634 16.5 3.67301 16.5C3.92968 16.5 4.14601 16.412 4.32201 16.236C4.49801 16.06 4.58601 15.84 4.58601 15.576C4.85001 15.576 5.07001 15.488 5.24601 15.312C5.42201 15.136 5.51001 14.9197 5.51001 14.663C5.51001 14.4063 5.42201 14.19 5.24601 14.014C5.07001 13.838 4.85001 13.75 4.58601 13.75ZM12.836 11C12.836 11.2493 12.9277 11.4657 13.111 11.649C13.2943 11.8323 13.5107 11.924 13.76 11.924H17.434C17.6833 11.924 17.896 11.8323 18.072 11.649C18.248 11.4657 18.336 11.2493 18.336 11C18.336 10.7507 18.248 10.5343 18.072 10.351C17.896 10.1677 17.6833 10.076 17.434 10.076H13.76C13.5107 10.076 13.2943 10.1677 13.111 10.351C12.9277 10.5343 12.836 10.7507 12.836 11ZM19.26 11.924C19.26 11.4107 19.0803 10.9743 18.721 10.615C18.3617 10.2557 17.9327 10.076 17.434 10.076C17.17 10.076 16.95 10.1677 16.774 10.351C16.598 10.5343 16.51 10.7507 16.51 11C16.51 11.2493 16.598 11.4657 16.774 11.649C16.95 11.8323 17.17 11.924 17.434 11.924C17.434 12.1733 17.522 12.386 17.698 12.562C17.874 12.738 18.0903 12.826 18.347 12.826C18.6037 12.826 18.82 12.738 18.996 12.562C19.172 12.386 19.26 12.1733 19.26 11.924ZM18.336 11C18.0867 11 17.874 11.088 17.698 11.264C17.522 11.44 17.434 11.66 17.434 11.924V17.424C17.434 17.6733 17.522 17.886 17.698 18.062C17.874 18.238 18.0903 18.326 18.347 18.326C18.6037 18.326 18.82 18.238 18.996 18.062C19.172 17.886 19.26 17.6733 19.26 17.424V11.924C19.26 11.66 19.172 11.44 18.996 11.264C18.82 11.088 18.6 11 18.336 11ZM17.434 19.25C17.9327 19.25 18.3617 19.0703 18.721 18.711C19.0803 18.3517 19.26 17.9227 19.26 17.424C19.26 17.16 19.172 16.94 18.996 16.764C18.82 16.588 18.6037 16.5 18.347 16.5C18.0903 16.5 17.874 16.588 17.698 16.764C17.522 16.94 17.434 17.16 17.434 17.424C17.17 17.424 16.95 17.512 16.774 17.688C16.598 17.864 16.51 18.0803 16.51 18.337C16.51 18.5937 16.598 18.81 16.774 18.986C16.95 19.162 17.17 19.25 17.434 19.25ZM18.336 18.326C18.336 18.0767 18.248 17.864 18.072 17.688C17.896 17.512 17.6833 17.424 17.434 17.424H13.76C13.5107 17.424 13.2943 17.512 13.111 17.688C12.9277 17.864 12.836 18.0803 12.836 18.337C12.836 18.5937 12.9277 18.81 13.111 18.986C13.2943 19.162 13.5107 19.25 13.76 19.25H17.434C17.6833 19.25 17.896 19.162 18.072 18.986C18.248 18.81 18.336 18.59 18.336 18.326ZM11.934 17.424C11.934 17.9227 12.11 18.3517 12.462 18.711C12.814 19.0703 13.2467 19.25 13.76 19.25C14.0093 19.25 14.2257 19.162 14.409 18.986C14.5923 18.81 14.684 18.5937 14.684 18.337C14.684 18.0803 14.5923 17.864 14.409 17.688C14.2257 17.512 14.0093 17.424 13.76 17.424C13.76 17.16 13.672 16.94 13.496 16.764C13.32 16.588 13.1037 16.5 12.847 16.5C12.5903 16.5 12.374 16.588 12.198 16.764C12.022 16.94 11.934 17.16 11.934 17.424ZM12.836 18.326C13.1 18.326 13.32 18.238 13.496 18.062C13.672 17.886 13.76 17.6733 13.76 17.424V11.924C13.76 11.66 13.672 11.44 13.496 11.264C13.32 11.088 13.1037 11 12.847 11C12.5903 11 12.374 11.088 12.198 11.264C12.022 11.44 11.934 11.66 11.934 11.924V17.424C11.934 17.6733 12.022 17.886 12.198 18.062C12.374 18.238 12.5867 18.326 12.836 18.326ZM13.76 10.076C13.2467 10.076 12.814 10.2557 12.462 10.615C12.11 10.9743 11.934 11.4107 11.934 11.924C11.934 12.1733 12.022 12.386 12.198 12.562C12.374 12.738 12.5903 12.826 12.847 12.826C13.1037 12.826 13.32 12.738 13.496 12.562C13.672 12.386 13.76 12.1733 13.76 11.924C14.0093 11.924 14.2257 11.8323 14.409 11.649C14.5923 11.4657 14.684 11.2493 14.684 11C14.684 10.7507 14.5923 10.5343 14.409 10.351C14.2257 10.1677 14.0093 10.076 13.76 10.076ZM12.836 3.674C12.836 3.92333 12.9277 4.136 13.111 4.312C13.2943 4.488 13.5107 4.576 13.76 4.576H17.434C17.6833 4.576 17.896 4.488 18.072 4.312C18.248 4.136 18.336 3.91967 18.336 3.663C18.336 3.40633 18.248 3.19 18.072 3.014C17.896 2.838 17.6833 2.75 17.434 2.75H13.76C13.5107 2.75 13.2943 2.838 13.111 3.014C12.9277 3.19 12.836 3.41 12.836 3.674ZM19.26 4.576C19.26 4.07733 19.0803 3.64833 18.721 3.289C18.3617 2.92967 17.9327 2.75 17.434 2.75C17.17 2.75 16.95 2.838 16.774 3.014C16.598 3.19 16.51 3.40633 16.51 3.663C16.51 3.91967 16.598 4.136 16.774 4.312C16.95 4.488 17.17 4.576 17.434 4.576C17.434 4.84 17.522 5.06 17.698 5.236C17.874 5.412 18.0903 5.5 18.347 5.5C18.6037 5.5 18.82 5.412 18.996 5.236C19.172 5.06 19.26 4.84 19.26 4.576ZM18.336 3.674C18.0867 3.674 17.874 3.762 17.698 3.938C17.522 4.114 17.434 4.32667 17.434 4.576V6.424C17.434 6.67333 17.522 6.886 17.698 7.062C17.874 7.238 18.0903 7.326 18.347 7.326C18.6037 7.326 18.82 7.238 18.996 7.062C19.172 6.886 19.26 6.67333 19.26 6.424V4.576C19.26 4.32667 19.172 4.114 18.996 3.938C18.82 3.762 18.6 3.674 18.336 3.674ZM17.434 8.25C17.9327 8.25 18.3617 8.07033 18.721 7.711C19.0803 7.35167 19.26 6.92267 19.26 6.424C19.26 6.16 19.172 5.94 18.996 5.764C18.82 5.588 18.6037 5.5 18.347 5.5C18.0903 5.5 17.874 5.588 17.698 5.764C17.522 5.94 17.434 6.16 17.434 6.424C17.17 6.424 16.95 6.512 16.774 6.688C16.598 6.864 16.51 7.08033 16.51 7.337C16.51 7.59367 16.598 7.81 16.774 7.986C16.95 8.162 17.17 8.25 17.434 8.25ZM18.336 7.326C18.336 7.07667 18.248 6.864 18.072 6.688C17.896 6.512 17.6833 6.424 17.434 6.424H13.76C13.5107 6.424 13.2943 6.512 13.111 6.688C12.9277 6.864 12.836 7.08033 12.836 7.337C12.836 7.59367 12.9277 7.81 13.111 7.986C13.2943 8.162 13.5107 8.25 13.76 8.25H17.434C17.6833 8.25 17.896 8.162 18.072 7.986C18.248 7.81 18.336 7.59 18.336 7.326ZM11.934 6.424C11.934 6.92267 12.11 7.35167 12.462 7.711C12.814 8.07033 13.2467 8.25 13.76 8.25C14.0093 8.25 14.2257 8.162 14.409 7.986C14.5923 7.81 14.684 7.59367 14.684 7.337C14.684 7.08033 14.5923 6.864 14.409 6.688C14.2257 6.512 14.0093 6.424 13.76 6.424C13.76 6.16 13.672 5.94 13.496 5.764C13.32 5.588 13.1037 5.5 12.847 5.5C12.5903 5.5 12.374 5.588 12.198 5.764C12.022 5.94 11.934 6.16 11.934 6.424ZM12.836 7.326C13.1 7.326 13.32 7.238 13.496 7.062C13.672 6.886 13.76 6.67333 13.76 6.424V4.576C13.76 4.32667 13.672 4.114 13.496 3.938C13.32 3.762 13.1037 3.674 12.847 3.674C12.5903 3.674 12.374 3.762 12.198 3.938C12.022 4.114 11.934 4.32667 11.934 4.576V6.424C11.934 6.67333 12.022 6.886 12.198 7.062C12.374 7.238 12.5867 7.326 12.836 7.326ZM13.76 2.75C13.2467 2.75 12.814 2.92967 12.462 3.289C12.11 3.64833 11.934 4.07733 11.934 4.576C11.934 4.84 12.022 5.06 12.198 5.236C12.374 5.412 12.5903 5.5 12.847 5.5C13.1037 5.5 13.32 5.412 13.496 5.236C13.672 5.06 13.76 4.84 13.76 4.576C14.0093 4.576 14.2257 4.488 14.409 4.312C14.5923 4.136 14.684 3.91967 14.684 3.663C14.684 3.40633 14.5923 3.19 14.409 3.014C14.2257 2.838 14.0093 2.75 13.76 2.75Z" fill="#8A96B0"/>
</svg>
