<svg width="24" height="24" viewBox="0 0 24 24" fill="none" xmlns="http://www.w3.org/2000/svg">
<path d="M18 22V19H15V17H18V14H20V17H23V19H20V22H18ZM6.5 20.5C5.53333 20.5 4.70833 20.1583 4.025 19.475C3.34167 18.7917 3 17.9667 3 17C3 16.5167 3.09167 16.0625 3.275 15.6375C3.45833 15.2125 3.71667 14.8333 4.05 14.5C3.71667 14.1833 3.45833 13.8083 3.275 13.375C3.09167 12.9417 3 12.4833 3 12C3 11.5167 3.09167 11.0625 3.275 10.6375C3.45833 10.2125 3.71667 9.83333 4.05 9.5C3.71667 9.18333 3.45833 8.80833 3.275 8.375C3.09167 7.94167 3 7.48333 3 7C3 6.05 3.34167 5.22917 4.025 4.5375C4.70833 3.84583 5.53333 3.5 6.5 3.5C6.98333 3.5 7.4375 3.59583 7.8625 3.7875C8.2875 3.97917 8.66667 4.24167 9 4.575C9.31667 4.24167 9.69167 3.97917 10.125 3.7875C10.5583 3.59583 11.0167 3.5 11.5 3.5H17.5C18.45 3.5 19.2708 3.84583 19.9625 4.5375C20.6542 5.22917 21 6.05 21 7C21 7.48333 20.9042 7.94167 20.7125 8.375C20.5208 8.80833 20.2583 9.18333 19.925 9.5C20.3083 9.88333 20.5917 10.3208 20.775 10.8125C20.9583 11.3042 21.025 11.8167 20.975 12.35C20.6583 12.2333 20.3333 12.15 20 12.1C19.6667 12.05 19.3333 12.025 19 12.025C19 11.6083 18.8542 11.25 18.5625 10.95C18.2708 10.65 17.9167 10.5 17.5 10.5H11.5C11.0833 10.5 10.7292 10.6458 10.4375 10.9375C10.1458 11.2292 10 11.5833 10 12C10 12.4167 10.1458 12.7708 10.4375 13.0625C10.7292 13.3542 11.0833 13.5 11.5 13.5H15.075C14.7583 13.7833 14.4708 14.0917 14.2125 14.425C13.9542 14.7583 13.7333 15.1167 13.55 15.5H11.5C11.0833 15.5 10.7292 15.6458 10.4375 15.9375C10.1458 16.2292 10 16.5833 10 17C10 17.4167 10.1458 17.7708 10.4375 18.0625C10.7292 18.3542 11.0833 18.5 11.5 18.5H13.025C13.0583 18.85 13.1167 19.1917 13.2 19.525C13.2833 19.8583 13.3917 20.1833 13.525 20.5H11.5C11.0167 20.5 10.5583 20.4083 10.125 20.225C9.69167 20.0417 9.31667 19.7833 9 19.45C8.66667 19.7833 8.2875 20.0417 7.8625 20.225C7.4375 20.4083 6.98333 20.5 6.5 20.5ZM6.5 18.5C6.91667 18.5 7.27083 18.3542 7.5625 18.0625C7.85417 17.7708 8 17.4167 8 17C8 16.5833 7.85417 16.2292 7.5625 15.9375C7.27083 15.6458 6.91667 15.5 6.5 15.5C6.08333 15.5 5.72917 15.6458 5.4375 15.9375C5.14583 16.2292 5 16.5833 5 17C5 17.4167 5.14583 17.7708 5.4375 18.0625C5.72917 18.3542 6.08333 18.5 6.5 18.5ZM6.5 13.5C6.91667 13.5 7.27083 13.3542 7.5625 13.0625C7.85417 12.7708 8 12.4167 8 12C8 11.5833 7.85417 11.2292 7.5625 10.9375C7.27083 10.6458 6.91667 10.5 6.5 10.5C6.08333 10.5 5.72917 10.6458 5.4375 10.9375C5.14583 11.2292 5 11.5833 5 12C5 12.4167 5.14583 12.7708 5.4375 13.0625C5.72917 13.3542 6.08333 13.5 6.5 13.5ZM6.5 8.5C6.91667 8.5 7.27083 8.35417 7.5625 8.0625C7.85417 7.77083 8 7.41667 8 7C8 6.58333 7.85417 6.22917 7.5625 5.9375C7.27083 5.64583 6.91667 5.5 6.5 5.5C6.08333 5.5 5.72917 5.64583 5.4375 5.9375C5.14583 6.22917 5 6.58333 5 7C5 7.41667 5.14583 7.77083 5.4375 8.0625C5.72917 8.35417 6.08333 8.5 6.5 8.5ZM11.5 8.5H17.5C17.9167 8.5 18.2708 8.35417 18.5625 8.0625C18.8542 7.77083 19 7.41667 19 7C19 6.58333 18.8542 6.22917 18.5625 5.9375C18.2708 5.64583 17.9167 5.5 17.5 5.5H11.5C11.0833 5.5 10.7292 5.64583 10.4375 5.9375C10.1458 6.22917 10 6.58333 10 7C10 7.41667 10.1458 7.77083 10.4375 8.0625C10.7292 8.35417 11.0833 8.5 11.5 8.5Z" fill="#8A96B0"/>
</svg>
