<svg width="23" height="22" viewBox="0 0 23 22" fill="none" xmlns="http://www.w3.org/2000/svg">
<path d="M11.824 5.08204C11.7213 4.86204 11.549 4.71171 11.307 4.63104C11.065 4.55037 10.8266 4.56871 10.592 4.68604L3.26596 8.33804C3.04596 8.45537 2.89563 8.63504 2.81496 8.87704C2.73429 9.11904 2.74896 9.35371 2.85896 9.58104C2.96896 9.80837 3.14496 9.96237 3.38696 10.043C3.62896 10.1237 3.85996 10.1054 4.07996 9.98804L11.428 6.31404C11.648 6.21137 11.7983 6.03904 11.879 5.79704C11.9596 5.55504 11.9413 5.31671 11.824 5.08204ZM2.84796 8.75604C2.74529 8.97604 2.73429 9.20704 2.81496 9.44904C2.89563 9.69104 3.04596 9.87071 3.26596 9.98804L10.592 13.662C10.8266 13.7647 11.065 13.7757 11.307 13.695C11.549 13.6144 11.725 13.464 11.835 13.244C11.945 13.024 11.9596 12.793 11.879 12.551C11.7983 12.309 11.648 12.1294 11.428 12.012L4.07996 8.33804C3.85996 8.23537 3.62896 8.22437 3.38696 8.30504C3.14496 8.3857 2.96529 8.53604 2.84796 8.75604ZM10.196 13.244C10.2986 13.464 10.471 13.6144 10.713 13.695C10.955 13.7757 11.1933 13.7647 11.428 13.662L18.754 9.98804C18.974 9.87071 19.1243 9.69104 19.205 9.44904C19.2856 9.20704 19.271 8.97604 19.161 8.75604C19.051 8.53604 18.875 8.3857 18.633 8.30504C18.391 8.22437 18.16 8.23537 17.94 8.33804L10.592 12.012C10.372 12.1294 10.2216 12.309 10.141 12.551C10.0603 12.793 10.0786 13.024 10.196 13.244ZM19.172 9.57004C19.2746 9.35004 19.2856 9.11904 19.205 8.87704C19.1243 8.63504 18.974 8.45537 18.754 8.33804L11.428 4.68604C11.1933 4.56871 10.955 4.55037 10.713 4.63104C10.471 4.71171 10.295 4.86571 10.185 5.09304C10.075 5.32037 10.0603 5.55504 10.141 5.79704C10.2216 6.03904 10.372 6.21137 10.592 6.31404L17.94 9.98804C18.16 10.1054 18.391 10.1237 18.633 10.043C18.875 9.96237 19.0546 9.80471 19.172 9.57004ZM2.84796 12.43C2.74529 12.65 2.73429 12.881 2.81496 13.123C2.89563 13.365 3.04596 13.5447 3.26596 13.662L10.592 17.314C10.8266 17.4314 11.065 17.4497 11.307 17.369C11.549 17.2884 11.725 17.1344 11.835 16.907C11.945 16.6797 11.9596 16.445 11.879 16.203C11.7983 15.961 11.648 15.7887 11.428 15.686L4.07996 12.012C3.85996 11.8947 3.62896 11.8764 3.38696 11.957C3.14496 12.0377 2.96529 12.1954 2.84796 12.43ZM10.196 16.918C10.2986 17.138 10.471 17.2884 10.713 17.369C10.955 17.4497 11.1933 17.4314 11.428 17.314L18.754 13.662C18.974 13.5447 19.1243 13.365 19.205 13.123C19.2856 12.881 19.271 12.6464 19.161 12.419C19.051 12.1917 18.875 12.0377 18.633 11.957C18.391 11.8764 18.16 11.8947 17.94 12.012L10.592 15.686C10.372 15.7887 10.2216 15.961 10.141 16.203C10.0603 16.445 10.0786 16.6834 10.196 16.918Z" fill="#8A96B0"/>
</svg>
