<svg width="21" height="21" viewBox="0 0 21 21" fill="none" xmlns="http://www.w3.org/2000/svg">
<path d="M5.40313 17.3469C4.71771 16.6615 4.375 15.8375 4.375 14.875V7.72187C3.86458 7.53229 3.44531 7.2151 3.11719 6.77031C2.78906 6.32552 2.625 5.81875 2.625 5.25C2.625 4.52083 2.88021 3.90104 3.39062 3.39062C3.90104 2.88021 4.52083 2.625 5.25 2.625C5.97917 2.625 6.59896 2.88021 7.10938 3.39062C7.61979 3.90104 7.875 4.52083 7.875 5.25C7.875 5.81875 7.71094 6.32552 7.38281 6.77031C7.05469 7.2151 6.63542 7.53229 6.125 7.72187V14.875C6.125 15.3562 6.29635 15.7682 6.63906 16.1109C6.98177 16.4536 7.39375 16.625 7.875 16.625C8.35625 16.625 8.76823 16.4536 9.11094 16.1109C9.45365 15.7682 9.625 15.3562 9.625 14.875V6.125C9.625 5.1625 9.96771 4.33854 10.6531 3.65312C11.3385 2.96771 12.1625 2.625 13.125 2.625C14.0875 2.625 14.9115 2.96771 15.5969 3.65312C16.2823 4.33854 16.625 5.1625 16.625 6.125V13.2781C17.1354 13.4677 17.5547 13.7849 17.8828 14.2297C18.2109 14.6745 18.375 15.1812 18.375 15.75C18.375 16.4792 18.1198 17.099 17.6094 17.6094C17.099 18.1198 16.4792 18.375 15.75 18.375C15.0208 18.375 14.401 18.1198 13.8906 17.6094C13.3802 17.099 13.125 16.4792 13.125 15.75C13.125 15.1812 13.2891 14.6708 13.6172 14.2188C13.9453 13.7667 14.3646 13.4531 14.875 13.2781V6.125C14.875 5.64375 14.7036 5.23177 14.3609 4.88906C14.0182 4.54635 13.6062 4.375 13.125 4.375C12.6438 4.375 12.2318 4.54635 11.8891 4.88906C11.5464 5.23177 11.375 5.64375 11.375 6.125V14.875C11.375 15.8375 11.0323 16.6615 10.3469 17.3469C9.66146 18.0323 8.8375 18.375 7.875 18.375C6.9125 18.375 6.08854 18.0323 5.40313 17.3469ZM5.25 6.125C5.49792 6.125 5.70573 6.04115 5.87344 5.87344C6.04115 5.70573 6.125 5.49792 6.125 5.25C6.125 5.00208 6.04115 4.79427 5.87344 4.62656C5.70573 4.45885 5.49792 4.375 5.25 4.375C5.00208 4.375 4.79427 4.45885 4.62656 4.62656C4.45885 4.79427 4.375 5.00208 4.375 5.25C4.375 5.49792 4.45885 5.70573 4.62656 5.87344C4.79427 6.04115 5.00208 6.125 5.25 6.125ZM15.75 16.625C15.9979 16.625 16.2057 16.5411 16.3734 16.3734C16.5411 16.2057 16.625 15.9979 16.625 15.75C16.625 15.5021 16.5411 15.2943 16.3734 15.1266C16.2057 14.9589 15.9979 14.875 15.75 14.875C15.5021 14.875 15.2943 14.9589 15.1266 15.1266C14.9589 15.2943 14.875 15.5021 14.875 15.75C14.875 15.9979 14.9589 16.2057 15.1266 16.3734C15.2943 16.5411 15.5021 16.625 15.75 16.625Z" fill="#8A96B0"/>
</svg>
