<svg width="23" height="22" viewBox="0 0 23 22" fill="none" xmlns="http://www.w3.org/2000/svg">
<path d="M1.15827 22C1.47082 22 1.74201 21.8842 1.97182 21.6527C2.20164 21.4211 2.31655 21.1479 2.31655 20.833V5.77305C2.31655 5.45814 2.20164 5.18955 1.97182 4.96726C1.74201 4.74497 1.47082 4.63383 1.15827 4.63383C0.845723 4.63383 0.57454 4.74497 0.344724 4.96726C0.114908 5.18955 0 5.45814 0 5.77305V20.833C0 21.1479 0.114908 21.4211 0.344724 21.6527C0.57454 21.8842 0.845723 22 1.15827 22ZM0.0275779 5.66191C-0.00919265 5.86567 0.013789 6.06017 0.0965228 6.24541C0.179257 6.43065 0.307954 6.5881 0.482614 6.71777C0.657274 6.84744 0.845723 6.92153 1.04796 6.94006C1.2502 6.95858 1.44325 6.92153 1.6271 6.82891L11.9688 2.21646C12.263 2.08679 12.4652 1.87376 12.5755 1.57738C12.6859 1.281 12.6767 0.984617 12.548 0.688234C12.4193 0.391851 12.2078 0.188087 11.9137 0.0769444C11.6195 -0.0341988 11.3253 -0.0249367 11.0312 0.104731L0.689448 4.71719C0.505596 4.8098 0.353917 4.93947 0.234412 5.10619C0.114908 5.2729 0.0459632 5.45814 0.0275779 5.66191ZM10.452 0.688234C10.3233 0.984617 10.3141 1.281 10.4245 1.57738C10.5348 1.87376 10.737 2.08679 11.0312 2.21646L21.3729 6.82891C21.5568 6.92153 21.7498 6.95858 21.952 6.94006C22.1543 6.92153 22.3427 6.84744 22.5174 6.71777C22.692 6.5881 22.8207 6.43065 22.9035 6.24541C22.9862 6.06017 23.0138 5.86567 22.9862 5.66191C22.9586 5.45814 22.8851 5.2729 22.7656 5.10619C22.6461 4.93947 22.4944 4.8098 22.3106 4.71719L11.9688 0.104731C11.6747 -0.0249367 11.3805 -0.0341988 11.0863 0.0769444C10.7922 0.188087 10.5807 0.391851 10.452 0.688234ZM21.8417 4.63383C21.5292 4.63383 21.258 4.74497 21.0282 4.96726C20.7984 5.18955 20.6835 5.45814 20.6835 5.77305V20.833C20.6835 21.1479 20.7984 21.4211 21.0282 21.6527C21.258 21.8842 21.5292 22 21.8417 22C22.1543 22 22.4255 21.8842 22.6553 21.6527C22.8851 21.4211 23 21.1479 23 20.833V5.77305C23 5.45814 22.8851 5.18955 22.6553 4.96726C22.4255 4.74497 22.1543 4.63383 21.8417 4.63383ZM11.5 11.5803C11.5 11.8952 11.6103 12.1638 11.8309 12.3861C12.0516 12.6084 12.3273 12.7195 12.6583 12.7195H17.2362C17.5671 12.7195 17.8429 12.6084 18.0635 12.3861C18.2842 12.1638 18.3945 11.8906 18.3945 11.5664C18.3945 11.2422 18.2842 10.969 18.0635 10.7467C17.8429 10.5244 17.5671 10.4133 17.2362 10.4133H12.6583C12.3273 10.4133 12.0516 10.5244 11.8309 10.7467C11.6103 10.969 11.5 11.2469 11.5 11.5803ZM17.2362 10.4133C16.9237 10.4133 16.6571 10.5244 16.4365 10.7467C16.2158 10.969 16.1055 11.2469 16.1055 11.5803V20.833C16.1055 21.1479 16.2158 21.4211 16.4365 21.6527C16.6571 21.8842 16.9283 22 17.25 22C17.5717 22 17.8429 21.8842 18.0635 21.6527C18.2842 21.4211 18.3945 21.1479 18.3945 20.833V11.5803C18.3945 11.2469 18.2842 10.969 18.0635 10.7467C17.8429 10.5244 17.5671 10.4133 17.2362 10.4133ZM18.3945 20.833C18.3945 20.5181 18.2842 20.2449 18.0635 20.0133C17.8429 19.7818 17.5671 19.666 17.2362 19.666H5.76379C5.43285 19.666 5.15707 19.7818 4.93645 20.0133C4.71583 20.2449 4.60552 20.5181 4.60552 20.833C4.60552 21.1479 4.71583 21.4211 4.93645 21.6527C5.15707 21.8842 5.43285 22 5.76379 22H17.2362C17.5671 22 17.8429 21.8842 18.0635 21.6527C18.2842 21.4211 18.3945 21.1479 18.3945 20.833ZM5.76379 22C6.07634 22 6.34293 21.8842 6.56355 21.6527C6.78417 21.4211 6.89448 21.1479 6.89448 20.833V13.8865C6.89448 13.5716 6.78417 13.2984 6.56355 13.0668C6.34293 12.8353 6.07174 12.7195 5.75 12.7195C5.42826 12.7195 5.15707 12.8353 4.93645 13.0668C4.71583 13.2984 4.60552 13.5716 4.60552 13.8865V20.833C4.60552 21.1479 4.71583 21.4211 4.93645 21.6527C5.15707 21.8842 5.43285 22 5.76379 22ZM4.60552 13.8865C4.60552 14.2014 4.71583 14.4747 4.93645 14.7062C5.15707 14.9378 5.43285 15.0535 5.76379 15.0535H12.6583C12.9708 15.0535 13.2374 14.9378 13.458 14.7062C13.6787 14.4747 13.789 14.2014 13.789 13.8865C13.789 13.5716 13.6787 13.2984 13.458 13.0668C13.2374 12.8353 12.9708 12.7195 12.6583 12.7195H5.76379C5.43285 12.7195 5.15707 12.8353 4.93645 13.0668C4.71583 13.2984 4.60552 13.5716 4.60552 13.8865ZM12.6583 22C12.9708 22 13.2374 21.8842 13.458 21.6527C13.6787 21.4211 13.789 21.1479 13.789 20.833V10.4133C13.789 10.0984 13.6787 9.82516 13.458 9.59361C13.2374 9.36206 12.9662 9.24628 12.6445 9.24628C12.3227 9.24628 12.0516 9.36206 11.8309 9.59361C11.6103 9.82516 11.5 10.0984 11.5 10.4133V20.833C11.5 21.1479 11.6103 21.4211 11.8309 21.6527C12.0516 21.8842 12.3273 22 12.6583 22ZM13.789 10.4133C13.789 9.76495 13.5683 9.2185 13.1271 8.77392C12.6859 8.32935 12.1435 8.10706 11.5 8.10706C11.1875 8.10706 10.9163 8.21821 10.6865 8.44049C10.4566 8.66278 10.3417 8.93601 10.3417 9.26018C10.3417 9.58434 10.4566 9.85757 10.6865 10.0799C10.9163 10.3021 11.1875 10.4133 11.5 10.4133C11.5 10.7282 11.6103 11.0014 11.8309 11.233C12.0516 11.4645 12.3227 11.5803 12.6445 11.5803C12.9662 11.5803 13.2374 11.4645 13.458 11.233C13.6787 11.0014 13.789 10.7282 13.789 10.4133ZM12.6583 9.24628C12.6583 8.93138 12.5434 8.66278 12.3135 8.44049C12.0837 8.21821 11.8126 8.10706 11.5 8.10706H9.21103C8.8801 8.10706 8.60432 8.21821 8.38369 8.44049C8.16307 8.66278 8.05276 8.93601 8.05276 9.26018C8.05276 9.58434 8.16307 9.85757 8.38369 10.0799C8.60432 10.3021 8.8801 10.4133 9.21103 10.4133H11.5C11.8126 10.4133 12.0837 10.3021 12.3135 10.0799C12.5434 9.85757 12.6583 9.57971 12.6583 9.24628ZM9.21103 8.10706C8.56755 8.10706 8.02058 8.32935 7.57014 8.77392C7.1197 9.2185 6.89448 9.76495 6.89448 10.4133C6.89448 10.7282 7.00939 11.0014 7.23921 11.233C7.46903 11.4645 7.74021 11.5803 8.05276 11.5803C8.36531 11.5803 8.63649 11.4645 8.86631 11.233C9.09612 11.0014 9.21103 10.7282 9.21103 10.4133C9.52358 10.4133 9.79017 10.3021 10.0108 10.0799C10.2314 9.85757 10.3417 9.58434 10.3417 9.26018C10.3417 8.93601 10.2314 8.66278 10.0108 8.44049C9.79017 8.21821 9.52358 8.10706 9.21103 8.10706ZM8.05276 9.24628C7.74021 9.24628 7.46903 9.36206 7.23921 9.59361C7.00939 9.82516 6.89448 10.0984 6.89448 10.4133V13.8865C6.89448 14.2014 7.00939 14.4747 7.23921 14.7062C7.46903 14.9378 7.74021 15.0535 8.05276 15.0535C8.36531 15.0535 8.63649 14.9378 8.86631 14.7062C9.09612 14.4747 9.21103 14.2014 9.21103 13.8865V10.4133C9.21103 10.0984 9.09612 9.82516 8.86631 9.59361C8.63649 9.36206 8.36531 9.24628 8.05276 9.24628Z" fill="#8A96B0"/>
</svg>
