<svg width="24" height="24" viewBox="0 0 24 24" fill="none" xmlns="http://www.w3.org/2000/svg">
<path d="M5.48295 18.2344C4.97917 17.724 4.72727 17.1042 4.72727 16.375H3V6.75C3 6.26875 3.16913 5.85677 3.50739 5.51406C3.84564 5.17135 4.25227 5 4.72727 5H16.8182V8.5H19.4091L22 12V16.375H20.2727C20.2727 17.1042 20.0208 17.724 19.517 18.2344C19.0133 18.7448 18.4015 19 17.6818 19C16.9621 19 16.3504 18.7448 15.8466 18.2344C15.3428 17.724 15.0909 17.1042 15.0909 16.375H9.90909C9.90909 17.1042 9.6572 17.724 9.15341 18.2344C8.64962 18.7448 8.03788 19 7.31818 19C6.59848 19 5.98674 18.7448 5.48295 18.2344ZM7.93352 16.9984C8.09905 16.8307 8.18182 16.6229 8.18182 16.375C8.18182 16.1271 8.09905 15.9193 7.93352 15.7516C7.76799 15.5839 7.56288 15.5 7.31818 15.5C7.07348 15.5 6.86837 15.5839 6.70284 15.7516C6.53731 15.9193 6.45455 16.1271 6.45455 16.375C6.45455 16.6229 6.53731 16.8307 6.70284 16.9984C6.86837 17.1661 7.07348 17.25 7.31818 17.25C7.56288 17.25 7.76799 17.1661 7.93352 16.9984ZM4.72727 14.625H5.41818C5.66288 14.3625 5.94356 14.151 6.26023 13.9906C6.57689 13.8302 6.92955 13.75 7.31818 13.75C7.70682 13.75 8.05947 13.8302 8.37614 13.9906C8.6928 14.151 8.97348 14.3625 9.21818 14.625H15.0909V6.75H4.72727V14.625ZM18.2972 16.9984C18.4627 16.8307 18.5455 16.6229 18.5455 16.375C18.5455 16.1271 18.4627 15.9193 18.2972 15.7516C18.1316 15.5839 17.9265 15.5 17.6818 15.5C17.4371 15.5 17.232 15.5839 17.0665 15.7516C16.9009 15.9193 16.8182 16.1271 16.8182 16.375C16.8182 16.6229 16.9009 16.8307 17.0665 16.9984C17.232 17.1661 17.4371 17.25 17.6818 17.25C17.9265 17.25 18.1316 17.1661 18.2972 16.9984ZM16.8182 12.875H20.4886L18.5455 10.25H16.8182V12.875Z" fill="#4A5568"/>
</svg>
